<?xml version="1.0" encoding="utf-8"?>
<svg width="240px" height="240px" viewBox="0 0 240 240" version="1.1" xmlns="http://www.w3.org/2000/svg" xmlns:bx="https://boxy-svg.com">
  <defs>
    <bx:grid x="0" y="0" width="30" height="30"/>
  </defs>
  <title>Group 4</title>
  <desc>Created with Sketch.</desc>
  <g id="Atoms" stroke="none" stroke-width="1" fill="none" fill-rule="evenodd">
    <g id="Group-4" transform="translate(2.000000, 2.000000)">
      <circle id="Oval-Copy-2" stroke="#CDCDD4" stroke-width="2" fill="#F9F9F9" cx="41" cy="191" r="10"/>
      <g transform="matrix(1, 0, 0, 1, 40, 54)">
        <circle id="Oval-Copy-3" stroke="#0250BB" stroke-width="2" fill="#FFFFFF" cx="61" cy="77" r="10"/>
        <circle id="Oval-Copy-4" fill="#0060DF" cx="61" cy="77" r="5"/>
      </g>
      <g transform="matrix(1, 0, 0, 1, 52, 44)">
        <circle id="Oval-Copy" stroke="#0060DF" stroke-width="2" fill="#FFFFFF" cx="79" cy="57" r="10"/>
        <circle id="Oval-Copy" fill="#0060DF" cx="79" cy="57" r="5"/>
      </g>
      <g transform="matrix(1, 0, 0, 1, 2, 96)">
        <circle id="Oval-Copy-16" stroke="#CDCDD4" stroke-width="2" fill="#F9F9F9" cx="9" cy="125" r="10"/>
        <circle id="Oval-Copy-17" fill="#CDCDD4" cx="9" cy="125" r="5"/>
      </g>
      <circle id="Oval" stroke="#9595A3" stroke-width="2" fill="#FFFFFF" cx="221" cy="11" r="10"/>
      <circle id="Oval-Copy-10" stroke="#0250BB" stroke-width="2" fill="#FFFFFF" cx="191" cy="41" r="10"/>
      <g transform="matrix(1, 0, 0, 1, 10.928001, 84.955002)">
        <circle id="circle-3" fill="#FFFFFF" cx="60.072" cy="76.045" r="11" style="stroke: rgb(10, 132, 255); stroke-opacity: 0.27; stroke-width: 4px;"/>
        <circle id="circle-1" stroke="#0250BB" stroke-width="2" fill="#FFFFFF" cx="60.072" cy="76" r="10"/>
        <circle id="circle-2" fill="#0060DF" cx="60" cy="76" r="5"/>
      </g>
      <circle id="circle-5" fill="#FFFFFF" cx="161" cy="71" r="11" style="stroke: rgb(10, 132, 255); stroke-opacity: 0.3; stroke-width: 4px;"/>
      <circle id="circle-4" stroke="#0250BB" stroke-width="2" fill="#FFFFFF" cx="161" cy="71" r="10"/>
    </g>
  </g>
</svg>